[Header]
FileType HTR
DataType HTRS
FileVersion 1
NumSegments 22
NumFrames 4
DataFrameRate 24
EulerRotationOrder ZYX
CalibrationUnits mm
RotationUnits Degrees
GlobalAxisofGravity Y
BoneLengthAxis Y
ScaleFactor 1.0
[SegmentNames&Hierarchy]
reference	GLOBAL
Hips	reference
Spine	Hips
Spine1	Spine
Neck	Spine1
Head	Neck
LeftShoulder	Spine1
LeftArm	LeftShoulder
LeftForeArm	LeftArm
LeftHand	LeftForeArm
RightShoulder	Spine1
RightArm	RightShoulder
RightForeArm	RightArm
RightHand	RightForeArm
LeftUpLeg	Hips
LeftLeg	LeftUpLeg
LeftFoot	LeftLeg
LeftToeBase	LeftFoot
RightUpLeg	Hips
RightLeg	RightUpLeg
RightFoot	RightLeg
RightToeBase	RightFoot
[BasePosition]
reference	0	0	0	0	0	0	1
Hips	0	0	0	0	0	0	1
Spine	0	0	0	-0	-90	0	1
Spine1	0	0	0	0	0	0	1
Neck	0	0	0	82.64767223	-82.64767223	-90	1
Head	0	0	0	-0	-90	0	1
LeftShoulder	0	0	0	0	0	0	1
LeftArm	0	0	0	0	0	0	1
LeftForeArm	0	0	0	0	0	0	1
LeftHand	0	0	0	0	0	0	1
RightShoulder	0	0	0	0	-0	180	1
RightArm	0	0	0	0	-0	180	1
RightForeArm	0	0	0	0	-0	180	1
RightHand	0	0	0	0	-0	180	1
LeftUpLeg	0	0	0	-0	90	0	1
LeftLeg	0	0	0	-0	90	0	1
LeftFoot	0	0	0	-23.42853957	23.42853957	-90	1
LeftToeBase	0	0	0	0	-0	-90	1
RightUpLeg	0	0	0	-0	90	0	1
RightLeg	0	0	0	-0	90	0	1
RightFoot	0	0	0	-23.42853957	23.42853957	-90	1
RightToeBase	0	0	0	0	-0	-90	1
[reference]
12	0	0	0	0	-0	0	1.0
13	0	0	0	0	-0	0	1.0
14	0	0	0	0	-0	0	1.0
15	0	0	0	0	-0	0	1.0
[Hips]
12	3.603656054	-0.905094862	7.90639019	2.451726198	0.09552620351	-140.9325867	1.0
13	3.60939002	-0.9101399183	7.917819977	2.001431704	-0.3014659882	-140.8020477	1.0
14	3.647802353	-0.9131206274	7.990559578	0.9530392885	-0.7378287315	-141.581955	1.0
15	3.793410778	-0.9092578888	8.204139709	0.7638673186	-0.4196317792	-142.0780182	1.0
[Spine]
12	0	0	0.7457100153	6.849751472	91.10853577	15.01819706	1.0
13	0	0	0.7457100153	28.29525757	91.45940399	36.30332947	1.0
14	0	0	0.7457100153	20.53817558	91.70230103	27.28584862	1.0
15	0	0	0.7457100153	-12.5654068	90.7782135	-6.448219299	1.0
[Spine1]
12	0	0	2.140589952	4.657290459	-6.580530167	-0.3428400457	1.0
13	0	0	2.140589952	4.580990314	-6.567994595	-0.5301706195	1.0
14	0	0	2.140589952	2.957812548	-6.894354343	-0.412057519	1.0
15	0	0	2.140589952	1.268964052	-6.448612213	-0.07508859038	1.0
[Neck]
12	0	0	2.32246995	75.04021454	71.10446167	90.1411438	1.0
13	0	0	2.32246995	76.3114624	70.67749786	90.07530212	1.0
14	0	0	2.32246995	78.996521	70.36051941	89.83718872	1.0
15	0	0	2.32246995	80.6167984	70.20558167	89.29853821	1.0
[Head]
12	0	-0.1818799973	1.409579992	-76.71722412	102.9361649	-73.38877869	1.0
13	0	-0.1818799973	1.409579992	-76.89234161	103.382843	-73.2765274	1.0
14	0	-0.1818799973	1.409579992	-76.61828613	103.7255402	-72.65159607	1.0
15	0	-0.1818799973	1.409579992	-74.68241882	104.033493	-71.63652039	1.0
[LeftShoulder]
12	0.3668199778	0.02662999928	1.946700096	-15.81469631	-0.5818971992	-12.88318062	1.0
13	0.3668199778	0.02662999928	1.946700096	-16.35007668	-0.7482452393	-12.67437363	1.0
14	0.3668199778	0.02662999928	1.946700096	-16.57870293	-0.8332059979	-12.14760017	1.0
15	0.3668199778	0.02662999928	1.946700096	-16.03209686	-0.9277419448	-11.86232948	1.0
[LeftArm]
12	1.140689969	0	0	33.59473038	62.36882401	-4.255149841	1.0
13	1.140689969	0	0	33.84999847	62.04589081	-3.33528614	1.0
14	1.140689969	0	0	34.66056824	61.22697067	-1.850399733	1.0
15	1.140689969	0	0	34.4144249	59.03446198	-2.764339447	1.0
[LeftForeArm]
12	2.749800205	0	0	43.25879669	-17.54871178	-135.8682861	1.0
13	2.749800205	0	0	43.01293564	-17.52383614	-135.5043488	1.0
14	2.749800205	0	0	42.10938263	-17.19807053	-135.0963745	1.0
15	2.749800205	0	0	42.72749329	-17.40629578	-135.4585571	1.0
[LeftHand]
12	2.295179844	0	0	5.236181259	-19.64734268	-20.97021103	1.0
13	2.295179844	0	0	5.525216103	-20.11332512	-21.2251339	1.0
14	2.295179844	0	0	5.656002998	-19.89053345	-21.14399719	1.0
15	2.295179844	0	0	5.506741524	-20.06427574	-21.10140991	1.0
[RightShoulder]
12	-0.3601199985	0.02662999928	1.946700096	-8.733179092	5.947446823	-178.2099609	1.0
13	-0.3601199985	0.02662999928	1.946700096	-8.561724663	5.714177132	-178.2255096	1.0
14	-0.3601199985	0.02662999928	1.946700096	-7.815982342	5.004881859	-178.1590271	1.0
15	-0.3601199985	0.02662999928	1.946700096	-7.046437263	4.088547707	-177.5486603	1.0
[RightArm]
12	-1.140689969	0	0	49.44784546	-76.11601257	-175.0916748	1.0
13	-1.140689969	0	0	48.57616043	-76.06655121	-174.4406891	1.0
14	-1.140689969	0	0	46.65630722	-74.62554932	-172.4200134	1.0
15	-1.140689969	0	0	48.08888245	-72.43653107	-173.0096588	1.0
[RightForeArm]
12	-2.749800205	0	0	49.15213776	21.96024513	-50.89015579	1.0
13	-2.749800205	0	0	49.72127151	22.06168365	-50.57421875	1.0
14	-2.749800205	0	0	49.1269455	21.64861107	-50.45246124	1.0
15	-2.749800205	0	0	48.66815186	21.36530304	-49.99420929	1.0
[RightHand]
12	-2.295179844	0	0	8.872436523	23.72150993	-160.6978149	1.0
13	-2.295179844	0	0	8.987876892	23.90920258	-160.7432098	1.0
14	-2.295179844	0	0	8.989748955	23.72198677	-160.9225464	1.0
15	-2.295179844	0	0	8.69748497	23.83994484	-160.8048859	1.0
[LeftUpLeg]
12	0.9094099998	0	0	31.18125343	-100.3462982	-51.83056259	1.0
13	0.9094099998	0	0	27.43284607	-99.09609222	-46.74285889	1.0
14	0.9094099998	0	0	32.48945236	-99.25837708	-48.18202209	1.0
15	0.9094099998	0	0	29.6407547	-100.0419617	-42.26941681	1.0
[LeftLeg]
12	0	0	-4.498080254	66.27409363	-69.28672028	-19.88702393	1.0
13	0	0	-4.498080254	60.76730347	-71.91233826	-16.07139969	1.0
14	0	0	-4.498080254	50.04589462	-76.13181305	-10.39583969	1.0
15	0	0	-4.498080254	26.08057213	-79.86860657	6.510579586	1.0
[LeftFoot]
12	0	0	-3.729400158	-60.90662003	-0.1040656716	110.7017822	1.0
13	0	0	-3.729400158	-61.03322601	-0.9408388138	109.5539246	1.0
14	0	0	-3.729400158	-59.74530792	-3.165375233	106.8768463	1.0
15	0	0	-3.729400158	-51.59066772	-3.991018534	102.1285934	1.0
[LeftToeBase]
12	0	-1.364109993	-0.5911099911	-1.999999995e-006	0	-9.999999975e-007	1.0
13	0	-1.364109993	-0.5911099911	-1.999999995e-006	0	-9.999999975e-007	1.0
14	0	-1.364109993	-0.5911099911	-1.999999995e-006	0	-9.999999975e-007	1.0
15	0	-1.364109993	-0.5911099911	-1.999999995e-006	0	-9.999999975e-007	1.0
[RightUpLeg]
12	-0.9094099998	0	0	50.74020767	-80.23150635	-54.85064697	1.0
13	-0.9094099998	0	0	46.03940201	-79.78406525	-48.98370743	1.0
14	-0.9094099998	0	0	43.86066437	-78.96064758	-44.96860886	1.0
15	-0.9094099998	0	0	48.24704361	-78.38576508	-48.01085663	1.0
[RightLeg]
12	0	0	-4.498080254	45.16568756	-75.53377533	-2.859195232	1.0
13	0	0	-4.498080254	40.60937119	-77.67730713	0.0713589862	1.0
14	0	0	-4.498080254	26.39630127	-80.45167542	10.92420483	1.0
15	0	0	-4.498080254	5.837900639	-83.32886505	25.1892395	1.0
[RightFoot]
12	0	0	-3.729400158	-56.92319489	-34.87281799	100.6986008	1.0
13	0	0	-3.729400158	-57.85774231	-35.57992554	101.1317215	1.0
14	0	0	-3.729400158	-57.06003952	-38.50016022	99.93305969	1.0
15	0	0	-3.729400158	-51.0859642	-40.39194489	99.31040192	1.0
[RightToeBase]
12	0	-1.364109993	-0.5911099911	-1.999999995e-006	9.999999975e-007	9.999999975e-007	1.0
13	0	-1.364109993	-0.5911099911	-1.999999995e-006	9.999999975e-007	9.999999975e-007	1.0
14	0	-1.364109993	-0.5911099911	-1.999999995e-006	9.999999975e-007	9.999999975e-007	1.0
15	0	-1.364109993	-0.5911099911	-1.999999995e-006	9.999999975e-007	9.999999975e-007	1.0
[EndOfFile]
